<svg width="21" height="16" viewBox="0 0 21 16" fill="none" xmlns="http://www.w3.org/2000/svg">
<path d="M19.3831 7.28671C18.9713 7.28671 18.6411 7.61687 18.6411 8.02865V11.5897C18.6411 13.0469 17.4542 14.2295 16.0013 14.2295H4.99866C3.54148 14.2295 2.35887 13.0426 2.35887 11.5897V7.93725C2.35887 7.52547 2.02871 7.19531 1.61694 7.19531C1.20516 7.19531 0.875 7.52547 0.875 7.93725V11.5897C0.875 13.8661 2.72703 15.7133 4.99866 15.7133H16.0013C18.2777 15.7133 20.125 13.8613 20.125 11.5897V8.02865C20.125 7.62204 19.7954 7.28671 19.3831 7.28671Z" fill="white" stroke="white" stroke-width="0.25"/>
<path d="M13.8939 5.80734L13.8939 5.80741L11.242 8.4635V1.61694C11.242 1.20516 10.9118 0.875 10.5001 0.875C10.0883 0.875 9.75813 1.20516 9.75813 1.61694V8.46384L7.10163 5.80734C6.81061 5.51632 6.34302 5.51632 6.05201 5.80734C5.76099 6.09836 5.76099 6.56594 6.05201 6.85696L6.05206 6.85701L9.97754 10.7779C9.97756 10.7779 9.97758 10.778 9.97759 10.778C10.1197 10.9201 10.3114 10.9973 10.5001 10.9973C10.6863 10.9973 10.8793 10.9263 11.0234 10.7771L14.9436 6.85696C15.2346 6.56594 15.2346 6.09836 14.9436 5.80734C14.6525 5.51632 14.185 5.51632 13.8939 5.80734Z" fill="white" stroke="white" stroke-width="0.25"/>
</svg>
