<svg width="22" height="22" viewBox="0 0 22 22" fill="none" xmlns="http://www.w3.org/2000/svg">
<path d="M11.0015 0C6.8744 0 3.52808 3.32383 3.52808 7.42412C3.52808 9.52174 5.58572 13.2797 5.58572 13.2797L9.04949 19.1558C9.81242 20.4501 11.6767 20.4725 12.4705 19.1969L16.0894 13.3815C16.0894 13.3815 18.4719 9.79596 18.4719 7.42412C18.4725 3.32383 15.1268 0 11.0015 0ZM10.9666 11.5132C8.60284 11.5132 6.68825 9.59857 6.68825 7.23235C6.68825 4.86925 8.60221 2.9559 10.9666 2.9559C13.329 2.9559 15.2455 4.86925 15.2455 7.23235C15.2455 9.59857 13.329 11.5132 10.9666 11.5132Z" fill="#F2B12E"/>
</svg>
