<svg width="24" height="24" viewBox="0 0 24 24" fill="none" xmlns="http://www.w3.org/2000/svg">
<path d="M20.4811 3.51934C18.2541 1.29239 15.3056 0.0499688 12.1628 0.00843752C12.108 0.00346876 12.0537 0 12.0003 0C11.947 0 11.8927 0.00346876 11.8379 0.00843752C8.69513 0.049922 5.74655 1.29235 3.51961 3.51929C1.25437 5.78462 0.00683594 8.79644 0.00683594 12C0.00683594 15.2035 1.25437 18.2154 3.51966 20.4807C5.7466 22.7076 8.69514 23.95 11.838 23.9915C11.8927 23.9965 11.947 24 12.0003 24C12.0537 24 12.108 23.9965 12.1628 23.9915C15.3056 23.95 18.2542 22.7076 20.4811 20.4807C22.7463 18.2154 23.9939 15.2036 23.9939 12C23.9939 8.79644 22.7464 5.78462 20.4811 3.51934ZM4.52784 4.52752C5.80196 3.25341 7.34438 2.3454 9.02748 1.8548C8.64812 2.29154 8.27935 2.79385 7.93613 3.35049C7.49837 4.06046 7.11933 4.82996 6.80194 5.64357H3.55655C3.85186 5.25296 4.17558 4.87979 4.52784 4.52752ZM2.64815 7.06937H6.3219C5.93986 8.40634 5.71393 9.83069 5.6581 11.2871H1.45682C1.5555 9.79628 1.96279 8.36556 2.64815 7.06937ZM2.6482 16.9306C1.96275 15.6344 1.55545 14.2037 1.45678 12.7129H5.65805C5.71388 14.1694 5.93982 15.5937 6.32185 16.9306H2.6482ZM4.52789 19.4725C4.17553 19.1202 3.85181 18.7471 3.55655 18.3564H6.80199C7.11938 19.17 7.49837 19.9395 7.93618 20.6495C8.2794 21.2062 8.64817 21.7085 9.02753 22.1452C7.34448 21.6546 5.80205 20.7466 4.52789 19.4725ZM11.2874 22.2808C10.6935 21.8922 9.89593 21.1114 9.14968 19.9012C8.85038 19.4158 8.58137 18.8989 8.34357 18.3565H11.2874V22.2808H11.2874ZM11.2874 16.9306H7.80952C7.3929 15.6096 7.14563 14.1814 7.08488 12.7129H11.2874V16.9306ZM11.2874 11.2871H7.08488C7.14558 9.81864 7.39285 8.39036 7.80952 7.06937H11.2874V11.2871ZM11.2874 5.64353H8.34362C8.58142 5.10109 8.85043 4.58415 9.14973 4.0988C9.89593 2.88858 10.6935 2.10779 11.2875 1.71924V5.64353H11.2874ZM21.3525 7.06937C22.038 8.36561 22.4452 9.79628 22.5439 11.2871H18.3426C18.2868 9.83064 18.0608 8.4063 17.6788 7.06937H21.3525ZM19.4729 4.52752C19.8252 4.87979 20.1489 5.25296 20.4442 5.64357H17.1988C16.8814 4.82996 16.5024 4.06046 16.0646 3.35049C15.7214 2.79385 15.3527 2.29154 14.9733 1.8548C16.6563 2.3454 18.1987 3.25341 19.4729 4.52752ZM12.7133 1.71924C13.3072 2.10783 14.1048 2.88858 14.851 4.0988C15.1503 4.58415 15.4193 5.10109 15.6571 5.64353H12.7133V1.71924H12.7133ZM12.7133 7.06937H16.1912C16.6078 8.39041 16.8551 9.81874 16.9158 11.2871H12.7133V7.06937ZM16.9158 12.7129C16.8551 14.1814 16.6078 15.6096 16.1911 16.9306H12.7132V12.7129H16.9158ZM12.7133 22.2808V18.3565H15.6571C15.4193 18.8989 15.1503 19.4158 14.851 19.9012C14.1048 21.1115 13.3072 21.8922 12.7133 22.2808ZM19.4729 19.4725C18.1987 20.7466 16.6564 21.6546 14.9733 22.1452C15.3526 21.7085 15.7214 21.2062 16.0646 20.6496C16.5024 19.9396 16.8814 19.1701 17.1988 18.3565H20.4442C20.1489 18.7471 19.8252 19.1203 19.4729 19.4725ZM21.3525 16.9306H17.6788C18.0608 15.5937 18.2868 14.1694 18.3426 12.7129H22.5439C22.4452 14.2037 22.0379 15.6344 21.3525 16.9306Z" fill="black"/>
</svg>
