<svg width="34" height="34" viewBox="0 0 34 34" fill="none" xmlns="http://www.w3.org/2000/svg">
<path d="M8.3448 9.87301C8.01592 9.54413 8.02427 9.01296 8.35298 8.68426C8.68168 8.35555 9.20435 8.35569 9.53323 8.68457L16.6927 15.844L23.8488 8.68791C24.178 8.35974 24.7177 8.35989 25.0466 8.68877C25.3754 9.01765 25.3671 9.54882 25.0384 9.87752L17.8823 17.0336L25.0417 24.1931C25.3706 24.5219 25.3792 25.0531 25.0505 25.3818C24.7218 25.7105 24.1822 25.7104 23.8533 25.3815L16.6938 18.2221L9.53775 25.3782C9.20904 25.7069 8.67788 25.7152 8.34899 25.3863C8.02011 25.0575 8.01997 24.5178 8.34867 24.1891L15.5048 17.033L8.3448 9.87301Z" fill="black"/>
</svg>
