<svg width="23" height="23" viewBox="0 0 23 23" fill="none" xmlns="http://www.w3.org/2000/svg">
<g clip-path="url(#clip0)">
<path d="M2.20755 8.03489C2.49849 8.2402 3.37551 8.84997 4.83866 9.86387C6.30184 10.8778 7.42274 11.6585 8.2014 12.206C8.28695 12.266 8.4687 12.3964 8.74675 12.5975C9.02484 12.7987 9.25591 12.9613 9.43977 13.0854C9.62377 13.2094 9.84621 13.3484 10.1073 13.5024C10.3683 13.6563 10.6143 13.772 10.8454 13.8486C11.0764 13.9258 11.2903 13.9641 11.4871 13.9641H11.5H11.5129C11.7097 13.9641 11.9237 13.9258 12.1548 13.8486C12.3857 13.772 12.632 13.6561 12.8927 13.5024C13.1537 13.3483 13.3761 13.2093 13.5601 13.0854C13.7441 12.9613 13.975 12.7987 14.2532 12.5975C14.5312 12.3963 14.7131 12.266 14.7987 12.206C15.5858 11.6585 17.5882 10.268 20.8053 8.03462C21.4299 7.59843 21.9517 7.0721 22.3709 6.45599C22.7905 5.84016 23 5.19411 23 4.51822C23 3.95341 22.7967 3.46992 22.3902 3.0678C21.9838 2.66559 21.5024 2.4646 20.9464 2.4646H2.05349C1.39468 2.4646 0.887676 2.68704 0.532578 3.13191C0.177526 3.57687 0 4.13305 0 4.8004C0 5.33945 0.235383 5.92359 0.705924 6.55247C1.17642 7.18138 1.67713 7.67557 2.20755 8.03489Z" fill="#F2B12E"/>
<path d="M21.7164 9.40809C18.9101 11.3075 16.7792 12.7836 15.3248 13.8362C14.8371 14.1954 14.4415 14.4758 14.1376 14.6768C13.8338 14.8779 13.4297 15.0832 12.9247 15.2927C12.42 15.5026 11.9496 15.6072 11.5131 15.6072H11.5H11.4871C11.0508 15.6072 10.5801 15.5026 10.0753 15.2927C9.57058 15.0832 9.16622 14.8779 8.86246 14.6768C8.55879 14.4758 8.16301 14.1954 7.67534 13.8362C6.52014 12.9891 4.39387 11.5129 1.29645 9.40809C0.8086 9.08316 0.376496 8.71071 0 8.2915V18.4821C0 19.0471 0.200992 19.5304 0.603202 19.9325C1.00532 20.3348 1.48885 20.5359 2.05362 20.5359H20.9465C21.5112 20.5359 21.9947 20.3348 22.3968 19.9325C22.7991 19.5302 23 19.0472 23 18.4821V8.2915C22.632 8.70203 22.2043 9.07448 21.7164 9.40809Z" fill="#F2B12E"/>
</g>
<defs>
<clipPath id="clip0">
<rect width="23" height="23" fill="white"/>
</clipPath>
</defs>
</svg>
