<svg width="17" height="13" viewBox="0 0 17 13" fill="none" xmlns="http://www.w3.org/2000/svg">
<g opacity="0.7">
<path d="M15.5129 5.93641C15.1733 5.93641 14.9009 6.20885 14.9009 6.54847V9.35981C14.9009 10.4957 13.9757 11.4175 12.8432 11.4175H4.15683C3.021 11.4175 2.09911 10.4923 2.09911 9.35981V6.47631C2.09911 6.13669 1.82668 5.86426 1.48705 5.86426C1.14743 5.86426 0.875 6.13669 0.875 6.47631V9.35981C0.875 11.1715 2.34893 12.6416 4.15683 12.6416H12.8432C14.6549 12.6416 16.125 11.1677 16.125 9.35981V6.54847C16.125 6.21306 15.8532 5.93641 15.5129 5.93641Z" fill="black" stroke="black" stroke-width="0.25"/>
<path d="M11.1608 4.77666L11.1607 4.77673L9.11211 6.82863V1.48705C9.11211 1.14743 8.83968 0.875 8.50006 0.875C8.16043 0.875 7.888 1.14743 7.888 1.48705V6.82897L5.83569 4.77666C5.59566 4.53663 5.20985 4.53663 4.96982 4.77666C4.72979 5.01669 4.72979 5.4025 4.96982 5.64253L4.96987 5.64258L8.06893 8.73803C8.06894 8.73804 8.06896 8.73806 8.06898 8.73808C8.18609 8.85516 8.34408 8.91895 8.50006 8.91895C8.65355 8.91895 8.81285 8.86043 8.93197 8.73724L12.0267 5.64253C12.2667 5.4025 12.2667 5.01669 12.0267 4.77666C11.7867 4.53663 11.4008 4.53663 11.1608 4.77666Z" fill="black" stroke="black" stroke-width="0.25"/>
</g>
</svg>
